<svg width="800" height="600" viewBox="0 0 800 600" fill="none" xmlns="http://www.w3.org/2000/svg">
  <rect width="800" height="600" fill="#F8F9FA"/>
  <path d="M0 300C100 200 300 400 400 300C500 200 700 400 800 300V600H0V300Z" fill="#FF9E00" fill-opacity="0.2"/>
  <path d="M0 350C100 250 300 450 400 350C500 250 700 450 800 350V600H0V350Z" fill="#FF0054" fill-opacity="0.2"/>
  <path d="M0 400C100 300 300 500 400 400C500 300 700 500 800 400V600H0V400Z" fill="#390099" fill-opacity="0.2"/>
  <path d="M0 450C100 350 300 550 400 450C500 350 700 550 800 450V600H0V450Z" fill="#9E0059" fill-opacity="0.2"/>
  <ellipse cx="200" cy="200" rx="100" ry="50" fill="#FF9E00" fill-opacity="0.2"/>
  <ellipse cx="600" cy="200" rx="100" ry="50" fill="#FF0054" fill-opacity="0.2"/>
  <ellipse cx="400" cy="150" rx="100" ry="50" fill="#390099" fill-opacity="0.2"/>
</svg>

