<svg width="800" height="600" viewBox="0 0 800 600" fill="none" xmlns="http://www.w3.org/2000/svg">
  <rect width="800" height="600" fill="#F5F5F5"/>
  <rect y="400" width="800" height="200" fill="#E0E0E0"/>
  <path d="M350 400V150H450V400H350Z" fill="#B0BEC5"/>
  <path d="M370 150L400 50L430 150H370Z" fill="#B0BEC5"/>
  <path d="M350 200H450" stroke="#78909C" stroke-width="5"/>
  <path d="M350 250H450" stroke="#78909C" stroke-width="5"/>
  <path d="M350 300H450" stroke="#78909C" stroke-width="5"/>
  <path d="M350 350H450" stroke="#78909C" stroke-width="5"/>
  <rect x="100" y="300" width="150" height="100" fill="#B0BEC5"/>
  <rect x="110" y="310" width="30" height="50" fill="#FFFFFF"/>
  <rect x="150" y="310" width="30" height="50" fill="#FFFFFF"/>
  <rect x="190" y="310" width="30" height="50" fill="#FFFFFF"/>
  <rect x="110" y="370" width="130" height="30" fill="#78909C"/>
  <rect x="550" y="300" width="150" height="100" fill="#B0BEC5"/>
  <rect x="560" y="310" width="30" height="50" fill="#FFFFFF"/>
  <rect x="600" y="310" width="30" height="50" fill="#FFFFFF"/>
  <rect x="640" y="310" width="30" height="50" fill="#FFFFFF"/>
  <rect x="560" y="370" width="130" height="30" fill="#78909C"/>
  <ellipse cx="400" cy="580" rx="400" ry="20" fill="#E0E0E0"/>
</svg>

