<svg width="800" height="600" viewBox="0 0 800 600" fill="none" xmlns="http://www.w3.org/2000/svg">
  <rect width="800" height="600" fill="#FFC8A2"/>
  <rect y="300" width="800" height="300" fill="#5EADF0"/>
  <circle cx="400" cy="150" r="80" fill="#FF7B54"/>
  <path d="M0 300C100 250 200 280 300 260C400 240 500 270 600 250C700 230 800 260 800 260V600H0V300Z" fill="#3A8DDE"/>
  <path d="M0 350C100 320 200 340 300 330C400 320 500 340 600 330C700 320 800 340 800 340V600H0V350Z" fill="#1E6EB7"/>
  <path d="M0 400C100 380 200 390 300 385C400 380 500 390 600 385C700 380 800 390 800 390V600H0V400Z" fill="#0A4D8C"/>
  <path d="M0 450C100 440 200 445 300 442.5C400 440 500 445 600 442.5C700 440 800 445 800 445V600H0V450Z" fill="#083C6C"/>
</svg>

