<svg width="800" height="600" viewBox="0 0 800 600" fill="none" xmlns="http://www.w3.org/2000/svg">
  <rect width="800" height="600" fill="#FFECD1"/>
  <rect y="400" width="800" height="200" fill="#E4A672"/>
  <circle cx="650" cy="120" r="60" fill="#FF7E00"/>
  <path d="M200 400C200 350 220 350 220 350C220 350 240 350 240 400H200Z" fill="#7D956B"/>
  <path d="M220 350C220 320 230 320 230 320C230 320 240 320 240 350H220Z" fill="#7D956B"/>
  <path d="M500 400C500 350 520 350 520 350C520 350 540 350 540 400H500Z" fill="#7D956B"/>
  <path d="M520 350C520 320 530 320 530 320C530 320 540 320 540 350H520Z" fill="#7D956B"/>
  <path d="M0 400C100 380 200 390 300 385C400 380 500 390 600 385C700 380 800 390 800 390V600H0V400Z" fill="#E4A672"/>
  <path d="M0 450C100 440 200 445 300 442.5C400 440 500 445 600 442.5C700 440 800 445 800 445V600H0V450Z" fill="#D69C60"/>
  <path d="M0 500C100 490 200 495 300 492.5C400 490 500 495 600 492.5C700 490 800 495 800 495V600H0V500Z" fill="#C88A4B"/>
</svg>

