<svg width="800" height="600" viewBox="0 0 800 600" fill="none" xmlns="http://www.w3.org/2000/svg">
  <rect width="800" height="600" fill="#E6F4F1"/>
  <path d="M0 400L200 200L400 350L600 150L800 300V600H0V400Z" fill="#4A7C59"/>
  <path d="M0 450L200 250L400 400L600 200L800 350V600H0V450Z" fill="#2E5339"/>
  <circle cx="650" cy="120" r="60" fill="#F9D923"/>
  <path d="M300 400L500 250L700 400V600H300V400Z" fill="#8CB369"/>
  <path d="M0 500L200 400L400 500L600 450L800 500V600H0V500Z" fill="#5B8C5A"/>
  <path d="M350 350L450 300L550 350V600H350V350Z" fill="#3A5335"/>
  <rect x="150" y="350" width="200" height="250" fill="#3A5335"/>
  <path d="M150 350L250 250L350 350H150Z" fill="#2E5339"/>
  <path d="M400 500C500 500 550 450 550 450V600H250V450C250 450 300 500 400 500Z" fill="#2E5339"/>
  <ellipse cx="400" cy="500" rx="150" ry="20" fill="#5B8C5A"/>
  <rect x="350" y="450" width="100" height="150" fill="#3A5335"/>
</svg>

